<svg height="574pt" viewBox="-96 -18 574 574.66669" width="574pt" xmlns="http://www.w3.org/2000/svg"><path d="m185.800781 101.464844c-100.589843 0-183.292969 84.183594-190.703125 190.652344-.101562 1.390624.375 2.757812 1.324219 3.777343.945313 1.019531 2.273437 1.601563 3.6640625 1.605469h371.4257815c1.394531-.003906 2.722656-.585938 3.667969-1.605469.949218-1.019531 1.425781-2.386719 1.324218-3.777343-7.414062-106.46875-90.113281-190.652344-190.703125-190.652344zm-73.121093 85.71875c-27.125 13.855468-45.347657 41.433594-48.601563 73.347656-.457031 4.464844-4.210937 7.859375-8.699219 7.863281-2.546875-.09375-4.992187-1.015625-6.964844-2.632812-1.285156-1.089844-2.011718-2.695313-1.988281-4.375 3.03125-38.113281 24.207031-71.421875 56.230469-88.710938 6.226562-3.359375 14.710938 1.597657 12.699219 11.058594-.328125 1.496094-1.308594 2.757813-2.675781 3.449219zm0 0"/><path d="m214.246094 86.050781c-2.074219-14.117187-14.179688-24.574219-28.445313-24.574219-14.261719 0-26.371093 10.457032-28.441406 24.574219 18.855469-2.785156 38.027344-2.785156 56.886719 0zm0 0"/><path d="m121.335938 416.25 97.609374-87.582031c2.523438-2.394531 5.15625-4.644531 7.867188-6.769531 1.105469-.859376 1.511719-2.347657.980469-3.648438-.53125-1.296875-1.859375-2.078125-3.253907-1.917969-17.363281 2.34375-33.476562 10.332031-45.851562 22.730469-.113281.113281-.230469.226562-.347656.328125l-79.175782 71.488281-.042968.039063v21.46875c0 10.660156 4.207031 17.023437 13.65625 20.625 11.730468 4.230469 24.835937 1.667969 34.113281-6.667969l1.417969-1.265625c.097656-.085937.195312-.171875.300781-.25 0 0 153.441406-123.574219 159.640625-127.601563 1.601562-1.039062-12.089844-1.585937-12.746094-1.585937-24.054687-.039063-47.1875 9.203125-64.589844 25.804687-.058593.058594-.125.113282-.1875.171876l-97.957031 87.90625c-1.777343 1.589843-4.121093 2.386718-6.5 2.210937-2.378906-.179687-4.582031-1.320313-6.09375-3.160156-2.953125-3.765625-2.441406-9.179688 1.160157-12.324219zm0 0"/><path d="m357.546875 333-9.164063-2.648438c-15.996093-4.628906-33.246093-.253906-45.101562 11.445313l-.675781.609375-142.820313 115.882812-1.273437 1.132813c-14.101563 12.773437-34.152344 16.613281-51.96875 9.945313-16.308594-6.21875-24.921875-19-24.921875-36.976563v-74.3125c-.128906-11.707031-9.652344-21.128906-21.359375-21.128906-11.703125 0-21.230469 9.421875-21.351563 21.128906v174.648437c-.003906 3.324219 2.695313 6.023438 6.027344 6.023438h149.023438c1.882812-.035156 3.644531-.921875 4.792968-2.417969l.019532-.019531 159.820312-197.722656c.136719-.167969.277344-.332032.425781-.488282.75-.765624 1.027344-1.882812.730469-2.910156-.28125-1.074218-1.121094-1.910156-2.203125-2.191406zm0 0"/><path d="m278.300781 61.25c4.832031 0 8.75-3.914062 8.75-8.75v-41.25c0-4.835938-3.917969-8.75-8.75-8.75-4.835937 0-8.75 3.914062-8.75 8.75v41.25c0 4.835938 3.914063 8.75 8.75 8.75zm0 0"/><path d="m80.800781 72.5c4.832031 0 8.75-3.914062 8.75-8.75v-55c0-4.835938-3.917969-8.75-8.75-8.75-4.835937 0-8.75 3.914062-8.75 8.75v55c0 4.835938 3.914063 8.75 8.75 8.75zm0 0"/><path d="m12.050781 126.25c4.832031 0 8.75-3.914062 8.75-8.75v-65c0-4.835938-3.917969-8.75-8.75-8.75-4.835937 0-8.75 3.914062-8.75 8.75v65c0 4.835938 3.914063 8.75 8.75 8.75zm0 0"/><path d="m347.050781 117.5c4.832031 0 8.75-3.914062 8.75-8.75v-61.25c0-4.835938-3.917969-8.75-8.75-8.75-4.835937 0-8.75 3.914062-8.75 8.75v61.25c0 4.835938 3.914063 8.75 8.75 8.75zm0 0"/></svg>