<svg id="Component_90_3" data-name="Component 90 – 3" xmlns="http://www.w3.org/2000/svg" width="552.28" height="1252.657" viewBox="0 0 552.28 1252.657">
  <rect id="Rectangle_372" data-name="Rectangle 372" width="537.552" height="552.28" rx="83" transform="translate(552.28 355.961) rotate(90)" fill="#848484"/>
  <path id="Rectangle_387" data-name="Rectangle 387" d="M33,0H206.184a0,0,0,0,1,0,0V321.611a0,0,0,0,1,0,0H33a33,33,0,0,1-33-33V33A33,33,0,0,1,33,0Z" transform="translate(114.558 1160.111) rotate(-90)" fill="#848484"/>
  <rect id="Rectangle_388" data-name="Rectangle 388" width="206.184" height="22.091" rx="6" transform="translate(62.334 1156.935) rotate(-90)" fill="#848484"/>
  <rect id="Rectangle_389" data-name="Rectangle 389" width="206.184" height="22.091" rx="6" transform="translate(466.273 1156.935) rotate(-90)" fill="#848484"/>
  <path id="Path_89" data-name="Path 89" d="M.612,316.773s-1.378-191.135,0-257.5C1.988-7.074,83.182.239,83.182.239" transform="translate(73.375 1232.71) rotate(-90)" fill="none" stroke="#848484" stroke-width="22"/>
  <path id="Path_90" data-name="Path 90" d="M.612,0s-1.378,207.882,0,280.03,82.57,64.225,82.57,64.225" transform="translate(132.837 1232.724) rotate(-90)" fill="none" stroke="#848484" stroke-width="22"/>
  <rect id="Rectangle_390" data-name="Rectangle 390" width="81.001" height="368.186" rx="31" transform="translate(91.801 1252.657) rotate(-90)" fill="#848484"/>
  <rect id="Rectangle_391" data-name="Rectangle 391" width="83.256" height="45.472" rx="1" transform="translate(425.925 1074.983) rotate(-90)" fill="#848484"/>
  <rect id="Rectangle_392" data-name="Rectangle 392" width="83.256" height="45.472" rx="1" transform="translate(73.381 1074.983) rotate(-90)" fill="#848484"/>
  <path id="Rectangle_406" data-name="Rectangle 406" d="M33,0H206.184a0,0,0,0,1,0,0V321.611a0,0,0,0,1,0,0H33a33,33,0,0,1-33-33V33A33,33,0,0,1,33,0Z" transform="translate(114.558 1160.111) rotate(-90)" fill="#848484"/>
  <rect id="Rectangle_407" data-name="Rectangle 407" width="206.184" height="22.091" rx="6" transform="translate(62.334 1156.935) rotate(-90)" fill="#848484"/>
  <rect id="Rectangle_408" data-name="Rectangle 408" width="206.184" height="22.091" rx="6" transform="translate(466.273 1156.935) rotate(-90)" fill="#848484"/>
  <path id="Path_98" data-name="Path 98" d="M.612,316.773s-1.378-191.135,0-257.5C1.988-7.074,83.182.239,83.182.239" transform="translate(73.375 1232.71) rotate(-90)" fill="none" stroke="#848484" stroke-width="22"/>
  <path id="Path_99" data-name="Path 99" d="M.612,0s-1.378,207.882,0,280.03,82.57,64.225,82.57,64.225" transform="translate(132.837 1232.724) rotate(-90)" fill="none" stroke="#848484" stroke-width="22"/>
  <rect id="Rectangle_409" data-name="Rectangle 409" width="81.001" height="368.186" rx="31" transform="translate(91.801 1252.657) rotate(-90)" fill="#848484"/>
  <rect id="Rectangle_410" data-name="Rectangle 410" width="83.256" height="45.472" rx="1" transform="translate(425.925 1074.983) rotate(-90)" fill="#848484"/>
  <rect id="Rectangle_411" data-name="Rectangle 411" width="83.256" height="45.472" rx="1" transform="translate(73.381 1074.983) rotate(-90)" fill="#848484"/>
  <path id="Rectangle_412" data-name="Rectangle 412" d="M33,0H206.184a0,0,0,0,1,0,0V321.611a0,0,0,0,1,0,0H33a33,33,0,0,1-33-33V33A33,33,0,0,1,33,0Z" transform="translate(436.155 92.546) rotate(90)" fill="#848484"/>
  <rect id="Rectangle_413" data-name="Rectangle 413" width="206.184" height="22.091" rx="6" transform="translate(488.377 95.722) rotate(90)" fill="#848484"/>
  <rect id="Rectangle_414" data-name="Rectangle 414" width="206.184" height="22.091" rx="6" transform="translate(84.439 95.722) rotate(90)" fill="#848484"/>
  <path id="Path_100" data-name="Path 100" d="M.612,316.773s-1.378-191.135,0-257.5C1.988-7.074,83.182.239,83.182.239" transform="translate(477.337 19.948) rotate(90)" fill="none" stroke="#848484" stroke-width="22"/>
  <path id="Path_101" data-name="Path 101" d="M.612,0s-1.378,207.882,0,280.03,82.57,64.225,82.57,64.225" transform="translate(417.875 19.933) rotate(90)" fill="none" stroke="#848484" stroke-width="22"/>
  <rect id="Rectangle_415" data-name="Rectangle 415" width="81.001" height="368.186" rx="31" transform="translate(458.911 0) rotate(90)" fill="#848484"/>
  <rect id="Rectangle_416" data-name="Rectangle 416" width="83.256" height="45.472" rx="1" transform="translate(124.787 177.674) rotate(90)" fill="#848484"/>
  <rect id="Rectangle_417" data-name="Rectangle 417" width="83.256" height="45.472" rx="1" transform="translate(477.331 177.674) rotate(90)" fill="#848484"/>
</svg>
