<?xml version="1.0" encoding="iso-8859-1"?>
<!-- Generator: Adobe Illustrator 19.0.0, SVG Export Plug-In . SVG Version: 6.00 Build 0)  -->
<svg version="1.1" id="Capa_1" xmlns="http://www.w3.org/2000/svg" xmlns:xlink="http://www.w3.org/1999/xlink" x="0px" y="0px"
	 viewBox="0 0 512 512" style="enable-background:new 0 0 512 512;" xml:space="preserve">
<g>
	<g>
		<path d="M482,361H30c-16.569,0-30,13.431-30,30c0,16.567,13.431,30,30,30h30v76c0,8.291,6.709,15,15,15h362
			c8.291,0,15-6.709,15-15v-76h30c16.569,0,30-13.433,30-30C512,374.431,498.569,361,482,361z"/>
	</g>
</g>
<g>
	<g>
		<path d="M442.14,99.247l8.276-16.538c2.331-4.644,2.082-10.166-0.657-14.59C447.034,63.695,442.2,61,437,61h-90
			c-5.2,0-10.034,2.695-12.759,7.119c-2.739,4.424-2.988,9.946-0.659,14.59l8.276,16.538c-26.398,9.681-45.786,27.709-57.4,52.174
			c1.111-0.073,2.166-0.406,3.289-0.406c17.109,0,32.988,8.496,42.48,22.734c7.939,11.924,27.1,11.924,35.039,0
			c9.492-14.238,25.371-22.734,42.48-22.734s32.988,8.496,42.48,22.734c7.939,11.909,27.1,11.968,35.039,0
			c4.47-6.703,10.437-12.003,17.201-15.873C491.361,130.048,470.835,109.769,442.14,99.247z"/>
	</g>
</g>
<g>
	<g>
		<path d="M510.663,190.011c-0.117,0.163-0.324,0.21-0.435,0.379c-9.478,14.238-25.356,22.734-42.466,22.734
			c-17.11,0-33.003-8.496-42.495-22.734c-7.939-11.924-27.1-11.924-35.039,0c-9.492,14.238-25.371,22.734-42.48,22.734
			s-32.988-8.496-42.48-22.734c-7.006-10.521-22.346-11.204-31.41-3.159C272.745,194.824,272,202.671,272,211
			c0,40.746,13.282,85.551,34.27,120h171.46C498.718,296.551,512,251.746,512,211C512,203.714,511.515,196.736,510.663,190.011z"/>
	</g>
</g>
<g>
	<g>
		<polygon points="40.84,301 52.842,331 217.158,331 229.16,301 		"/>
	</g>
</g>
<g>
	<g>
		<path d="M231.474,206.928C220.796,183.9,202.749,166.059,180,155.775V88.422c0-23.013,9.331-46.542,25.605-62.816
			c4.292-4.292,5.581-10.737,3.252-16.348C206.543,3.647,201.064,0,195,0H75c-6.064,0-11.543,3.647-13.857,9.258
			c-2.329,5.61-1.04,12.056,3.252,16.348C80.669,41.88,90,65.409,90,88.422v67.354c-22.749,10.283-40.796,28.124-51.475,51.152
			c-0.615,1.326-0.855,2.732-1.412,4.072h195.773C232.329,209.66,232.089,208.253,231.474,206.928z"/>
	</g>
</g>
<g>
	<g>
		<path d="M240.302,241H29.698c-0.967,10.007-0.756,20.045,1.236,30h208.132C241.058,261.045,241.269,251.007,240.302,241z"/>
	</g>
</g>
<g>
</g>
<g>
</g>
<g>
</g>
<g>
</g>
<g>
</g>
<g>
</g>
<g>
</g>
<g>
</g>
<g>
</g>
<g>
</g>
<g>
</g>
<g>
</g>
<g>
</g>
<g>
</g>
<g>
</g>
</svg>
